<?xml version="1.0" encoding="UTF-8"?>
<svg viewBox="0 0 1280 720" xmlns="http://www.w3.org/2000/svg">
<style>:root{--bg:#0a0a0a;--panel:#ffffff;--panel-2:#fdfbf7;--ink:#1a1a1a;--ink-inv:#f5f0e8;--muted:#7a756f;--muted-inv:#9a9580;--border:#e8e0d0;--border-dark:#2a2420;--gold:#c9a86a;--gold-weak:#fdf6e3}
  .serif{font-family:"Cormorant Garamond",Georgia,serif}
  .mono{font-family:ui-monospace,SFMono,Menlo,monospace;font-variant-numeric:tabular-nums}
</style>
<rect x="0" y="0" width="1280" height="720" fill="#0a0a0a"/>
<rect x="0" y="0" width="1280" height="1" fill="#c9a86a" opacity="0.95"/>
<rect x="0" y="1" width="1280" height="52" fill="#0f0f0f" stroke="#2a2420"/>
<text x="32" y="26" font-family="Cormorant Garamond,Georgia,serif" font-size="16" font-weight="600" fill="#f5f0e8" letter-spacing="0.08em">BUFFET</text>
<text x="102" y="26" font-family="Cormorant Garamond,Georgia,serif" font-size="16" font-weight="300" fill="#c9a86a" letter-spacing="0.08em">KM</text>
<text x="140" y="26" font-family="Inter,sans-serif" font-size="10" fill="#9a9580" letter-spacing="0.14em">ASISTENCIA FAMILIAR — LA PAZ</text>
<text x="1240" y="20" text-anchor="end" font-family="ui-monospace" font-size="9" fill="#7a756f">/admin/auditoria · v1.0</text>
<text x="1240" y="36" text-anchor="end" font-size="8" fill="#5a554f" letter-spacing="0.08em">BLACK · WHITE · GOLD — PREMIUM</text>
<text x="640" y="86" text-anchor="middle" font-family="Cormorant Garamond,Georgia,serif" font-size="20" fill="#f5f0e8" letter-spacing="0.04em">12 — Admin Auditoria</text>
<line x1="580" y1="96" x2="700" y2="96" stroke="#c9a86a" stroke-width="1" opacity="0.6"/>
<text x="640" y="114" text-anchor="middle" font-family="Inter,sans-serif" font-size="10" fill="#9a9580" letter-spacing="0.1em">/admin/auditoria — AntD 5.x · Contraste AA+</text>

<rect x="32" y="132" width="1216" height="280" rx="12" fill="#ffffff" stroke="#e8e0d0"/>
<rect x="32" y="132" width="1216" height="36" rx="12" fill="#fdfbf7"/><text x="48" y="154" font-size="10" fill="#7a756f" letter-spacing="0.08em">USUARIO</text><text x="280" y="154" font-size="10" fill="#7a756f">ACCION</text><text x="440" y="154" font-size="10" fill="#7a756f">DOC/CASO</text><text x="700" y="154" font-size="10" fill="#7a756f">FECHA</text><text x="900" y="154" font-size="10" fill="#7a756f">IP</text>
<g font-family="ui-monospace" font-size="11" fill="#1a1a1a">
  <text x="48" y="180">mariana@buffet.bo</text><text x="280" y="180">ver</text><text x="440" y="180">Convenio Mamani</text><text x="700" y="180">2026-08-30 10:00</text><text x="900" y="180">192.168.1.10</text>
  <line x1="32" y1="192" x2="1248" y2="192" stroke="#fdfbf7"/>
  <text x="48" y="216">santiago@buffet.bo</text><text x="280" y="216">compartir</text><text x="440" y="216">Informe Garcia</text><text x="700" y="216">2026-08-30 09:00</text><text x="900" y="216">192.168.1.20</text>
</g>
<rect x="1040" y="142" width="140" height="24" rx="8" fill="#c9a86a"/><text x="1110" y="158" text-anchor="middle" font-size="10" fill="#ffffff" font-weight="600">Exportar reporte</text>
<text x="48" y="260" font-size="10" fill="#7a756f">Filtros fecha/tipo/usuario · Inmutable — Intento DELETE → error permisos · hash encadenado</text>

<line x1="480" y1="700" x2="800" y2="700" stroke="#c9a86a" opacity="0.18"/>
<text x="640" y="714" text-anchor="middle" font-family="Inter,sans-serif" font-size="7" fill="#6b7280" letter-spacing="0.12em">BLACK #0A0A0A · WHITE #FFFFFF · GOLD #C9A86A · LETRA CLARA · CONTRASTE HERMOSO</text>
</svg>