<?xml version="1.0" encoding="UTF-8"?>
<svg viewBox="0 0 1280 720" xmlns="http://www.w3.org/2000/svg">
<style>:root{--bg:#0a0a0a;--panel:#ffffff;--panel-2:#fdfbf7;--ink:#1a1a1a;--ink-inv:#f5f0e8;--muted:#7a756f;--muted-inv:#9a9580;--border:#e8e0d0;--border-dark:#2a2420;--gold:#c9a86a;--gold-weak:#fdf6e3}
  .serif{font-family:"Cormorant Garamond",Georgia,serif}
  .mono{font-family:ui-monospace,SFMono,Menlo,monospace;font-variant-numeric:tabular-nums}
</style>
<rect x="0" y="0" width="1280" height="720" fill="#0a0a0a"/>
<rect x="0" y="0" width="1280" height="1" fill="#c9a86a" opacity="0.95"/>
<rect x="0" y="1" width="1280" height="52" fill="#0f0f0f" stroke="#2a2420"/>
<text x="32" y="26" font-family="Cormorant Garamond,Georgia,serif" font-size="16" font-weight="600" fill="#f5f0e8" letter-spacing="0.08em">BUFFET</text>
<text x="102" y="26" font-family="Cormorant Garamond,Georgia,serif" font-size="16" font-weight="300" fill="#c9a86a" letter-spacing="0.08em">KM</text>
<text x="140" y="26" font-family="Inter,sans-serif" font-size="10" fill="#9a9580" letter-spacing="0.14em">ASISTENCIA FAMILIAR — LA PAZ</text>
<text x="1240" y="20" text-anchor="end" font-family="ui-monospace" font-size="9" fill="#7a756f">/compartidos · v1.0</text>
<text x="1240" y="36" text-anchor="end" font-size="8" fill="#5a554f" letter-spacing="0.08em">BLACK · WHITE · GOLD — PREMIUM</text>
<text x="640" y="86" text-anchor="middle" font-family="Cormorant Garamond,Georgia,serif" font-size="20" fill="#f5f0e8" letter-spacing="0.04em">09 — Compartidos</text>
<line x1="580" y1="96" x2="700" y2="96" stroke="#c9a86a" stroke-width="1" opacity="0.6"/>
<text x="640" y="114" text-anchor="middle" font-family="Inter,sans-serif" font-size="10" fill="#9a9580" letter-spacing="0.1em">/compartidos — AntD 5.x · Contraste AA+</text>

<rect x="32" y="132" width="1216" height="280" rx="12" fill="#ffffff" stroke="#e8e0d0"/>
<rect x="32" y="132" width="1216" height="32" rx="12" fill="#fdfbf7"/><text x="48" y="152" font-size="10" fill="#7a756f" letter-spacing="0.06em">DOCUMENTO</text><text x="320" y="152" font-size="10" fill="#7a756f">DESTINATARIO</text><text x="560" y="152" font-size="10" fill="#7a756f">DURACION</text><text x="700" y="152" font-size="10" fill="#7a756f">ESTADO</text><text x="880" y="152" font-size="10" fill="#7a756f">ACCESOS</text>
<g font-size="11" fill="#1a1a1a">
  <text x="48" y="178" font-weight="500">Convenio Mamani.pdf</text><text x="320" y="178" font-family="ui-monospace" font-size="10" fill="#7a756f">defensoria@bo</text><text x="560" y="178">24h</text><rect x="700" y="168" width="56" height="16" rx="999" fill="#e6f4ea" stroke="#a3d9b1"/><text x="728" y="179" text-anchor="middle" font-size="9" fill="#14522d">Activo</text><text x="880" y="178" font-family="ui-monospace" font-size="10">2 — 2024-08-28 IP 192.168.1.20</text><rect x="1120" y="168" width="64" height="20" rx="8" fill="#ffffff" stroke="#e8e0d0"/><text x="1152" y="181" text-anchor="middle" font-size="9" fill="#7a756f">Revocar</text>
  <line x1="32" y1="192" x2="1248" y2="192" stroke="#fdfbf7"/>
  <text x="48" y="214" fill="#9a9580">Informe Garcia.pdf</text><text x="320" y="214" font-family="ui-monospace" font-size="10" fill="#9a9580">slim@bo</text><text x="560" y="214">72h</text><rect x="700" y="204" width="64" height="16" rx="999" fill="#f5f5f5" stroke="#e8e0d0"/><text x="732" y="215" text-anchor="middle" font-size="9" fill="#7a756f">Expirado</text>
</g>
<rect x="280" y="250" width="720" height="160" rx="12" fill="#ffffff" stroke="#c9a86a" stroke-opacity="0.4"/>
<rect x="280" y="250" width="720" height="2" fill="#c9a86a"/>
<text x="300" y="272" font-size="12" fill="#1a1a1a" font-weight="600">Compartir — Convenio Mamani.pdf</text>
<rect x="300" y="284" width="200" height="28" rx="8" fill="#fdfbf7" stroke="#e8e0d0"/><text x="310" y="302" font-size="11" fill="#1a1a1a">Duracion: 24h  ▾</text>
<rect x="516" y="284" width="200" height="28" rx="8" fill="#fdfbf7" stroke="#e8e0d0"/><text x="526" y="302" font-size="11" fill="#1a1a1a">Solo lectura  ▾</text>
<rect x="300" y="322" width="360" height="28" rx="8" fill="#fdfbf7" stroke="#e8e0d0"/><text x="310" y="340" font-size="11" fill="#7a756f">Email destinatario</text>
<rect x="680" y="322" width="140" height="28" rx="8" fill="#c9a86a"/><text x="750" y="340" text-anchor="middle" font-size="11" fill="#ffffff" font-weight="600">Generar enlace</text>
<text x="300" y="368" font-size="10" fill="#7a756f">JWT truncado eyJ... — Copiar — Watermark nombre/fecha — Anti-captura</text>

<line x1="480" y1="700" x2="800" y2="700" stroke="#c9a86a" opacity="0.18"/>
<text x="640" y="714" text-anchor="middle" font-family="Inter,sans-serif" font-size="7" fill="#6b7280" letter-spacing="0.12em">BLACK #0A0A0A · WHITE #FFFFFF · GOLD #C9A86A · LETRA CLARA · CONTRASTE HERMOSO</text>
</svg>